<?xml version="1.0" encoding="UTF-8" standalone="no"?>
<!-- Created with Inkscape (http://www.inkscape.org/) -->

<svg
   xmlns:dc="http://purl.org/dc/elements/1.1/"
   xmlns:cc="http://creativecommons.org/ns#"
   xmlns:rdf="http://www.w3.org/1999/02/22-rdf-syntax-ns#"
   xmlns:svg="http://www.w3.org/2000/svg"
   xmlns="http://www.w3.org/2000/svg"
   xmlns:sodipodi="http://sodipodi.sourceforge.net/DTD/sodipodi-0.dtd"
   xmlns:inkscape="http://www.inkscape.org/namespaces/inkscape"
   width="100"
   height="100"
   id="svg2"
   inkscape:label="Pozadí"
   version="1.1"
   inkscape:version="0.48.3.1 r9886"
   sodipodi:docname="bb.svg"
   inkscape:export-filename="/home/petr/workspace/bishop/src/bishop/graphics/piece_set_src/bb.png"
   inkscape:export-xdpi="180"
   inkscape:export-ydpi="180">
  <defs
     id="defs3" />
  <sodipodi:namedview
     id="base"
     pagecolor="#ffffff"
     bordercolor="#666666"
     borderopacity="1.0"
     inkscape:pageopacity="0.0"
     inkscape:pageshadow="2"
     inkscape:zoom="3.959798"
     inkscape:cx="58.811802"
     inkscape:cy="39.633061"
     inkscape:document-units="px"
     inkscape:current-layer="layer2"
     showgrid="true"
     inkscape:window-width="1355"
     inkscape:window-height="691"
     inkscape:window-x="0"
     inkscape:window-y="24"
     inkscape:window-maximized="1">
    <inkscape:grid
       type="xygrid"
       id="grid3003"
       empspacing="4"
       visible="true"
       enabled="true"
       snapvisiblegridlinesonly="true"
       spacingx="2.5px"
       spacingy="2.5px" />
  </sodipodi:namedview>
  <metadata
     id="metadata6">
    <rdf:RDF>
      <cc:Work
         rdf:about="">
        <dc:format>image/svg+xml</dc:format>
        <dc:type
           rdf:resource="http://purl.org/dc/dcmitype/StillImage" />
        <dc:title></dc:title>
      </cc:Work>
    </rdf:RDF>
  </metadata>
  <g
     inkscape:label="Border"
     inkscape:groupmode="layer"
     id="layer1"
     transform="translate(0,-952.36218)"
     style="display:inline">
    <path
       style="fill:#000000;fill-opacity:1;fill-rule:nonzero;stroke:#000000;stroke-width:3;stroke-linecap:round;stroke-linejoin:round;stroke-miterlimit:4;stroke-opacity:1;stroke-dasharray:none"
       d="M 42.1875,74.28125 C 37.273375,79.973265 30.359338,80 20,80 l 0,5 c 13.134249,0 20.518774,-0.02366 27.1875,-10.09375"
       transform="translate(0,952.36218)"
       id="path2987"
       inkscape:connector-curvature="0"
       sodipodi:nodetypes="cccc" />
    <path
       inkscape:connector-curvature="0"
       style="fill:#000000;fill-opacity:1;fill-rule:nonzero;stroke:#000000;stroke-width:3;stroke-linecap:round;stroke-linejoin:round;stroke-miterlimit:4;stroke-opacity:1;stroke-dasharray:none;display:inline"
       d="m 50,967.36216 c -2.761424,0 -5,2.23858 -5,5 0,2.76142 2.238576,5 5,5 2.761424,0 5,-2.23858 5,-5 0,-2.76142 -2.238576,-5 -5,-5 z m 0,10 c -10,7.5 -17.5,5 -17.5,20 0,7.50004 2.5,15.00004 2.5,15.00004 l 0,10 c 0,2.7614 6.715729,5 15,5 8.284271,0 15,-2.2386 15,-5 l 0,-10 c 0,0 2.5,-7.5 2.5,-15.00004 0,-15 -7.5,-12.5 -17.5,-20 z"
       id="path2987-2" />
    <path
       style="fill:#000000;fill-opacity:1;fill-rule:nonzero;stroke:#000000;stroke-width:3;stroke-linecap:round;stroke-linejoin:round;stroke-miterlimit:4;stroke-opacity:1;stroke-dasharray:none;display:inline"
       d="m 57.5,1027.3622 c 4.914125,5.6921 11.828162,5.7188 22.1875,5.7188 l 0,5 c -13.134249,0 -20.518774,-0.024 -27.1875,-10.0938"
       id="path2987-5"
       inkscape:connector-curvature="0"
       sodipodi:nodetypes="cccc" />
  </g>
  <g
     inkscape:groupmode="layer"
     id="layer2"
     inkscape:label="Inner lines"
     style="display:inline">
    <path
       style="fill:none;stroke:#ffffff;stroke-width:3;stroke-linecap:round;stroke-linejoin:round;stroke-miterlimit:4;stroke-opacity:1;stroke-dasharray:none"
       d="m 65,60 c 0,-1.380712 -6.715729,-2.5 -15,-2.5 -8.284271,0 -15,1.119288 -15,2.5"
       id="path3082"
       inkscape:connector-curvature="0"
       sodipodi:nodetypes="csc" />
    <path
       style="fill:none;stroke:#ffffff;stroke-width:3;stroke-linecap:round;stroke-linejoin:round;stroke-miterlimit:4;stroke-opacity:1;stroke-dasharray:none;display:inline"
       d="m 65,70 c 0,-1.380712 -6.715729,-2.5 -15,-2.5 -8.284271,0 -15,1.119288 -15,2.5"
       id="path3082-7"
       inkscape:connector-curvature="0"
       sodipodi:nodetypes="csc" />
    <path
       style="fill:none;stroke:#ffffff;stroke-width:3;stroke-linecap:round;stroke-linejoin:round;stroke-miterlimit:4;stroke-opacity:1;stroke-dasharray:none"
       d="m 50,35 0,15"
       id="path3118"
       inkscape:connector-curvature="0" />
    <path
       style="fill:none;stroke:#ffffff;stroke-width:3;stroke-linecap:round;stroke-linejoin:round;stroke-miterlimit:4;stroke-opacity:1;stroke-dasharray:none"
       d="m 45,40 10,0"
       id="path3120"
       inkscape:connector-curvature="0" />
  </g>
</svg>
