<?xml version="1.0" encoding="UTF-8" standalone="no"?>
<!-- Created with Inkscape (http://www.inkscape.org/) -->

<svg
   xmlns:dc="http://purl.org/dc/elements/1.1/"
   xmlns:cc="http://creativecommons.org/ns#"
   xmlns:rdf="http://www.w3.org/1999/02/22-rdf-syntax-ns#"
   xmlns:svg="http://www.w3.org/2000/svg"
   xmlns="http://www.w3.org/2000/svg"
   xmlns:sodipodi="http://sodipodi.sourceforge.net/DTD/sodipodi-0.dtd"
   xmlns:inkscape="http://www.inkscape.org/namespaces/inkscape"
   width="100"
   height="100"
   id="svg2"
   inkscape:label="Pozadí"
   version="1.1"
   inkscape:version="0.48.2 r9819"
   sodipodi:docname="bq.svg"
   inkscape:export-filename="/home/petr/workspace/bishop/src/bishop/graphics/piece_set_src/bq.png"
   inkscape:export-xdpi="54"
   inkscape:export-ydpi="54">
  <defs
     id="defs3" />
  <sodipodi:namedview
     id="base"
     pagecolor="#ffffff"
     bordercolor="#666666"
     borderopacity="1.0"
     inkscape:pageopacity="0.0"
     inkscape:pageshadow="2"
     inkscape:zoom="3.959798"
     inkscape:cx="-19.286317"
     inkscape:cy="44.516731"
     inkscape:document-units="px"
     inkscape:current-layer="layer2"
     showgrid="true"
     inkscape:window-width="1366"
     inkscape:window-height="684"
     inkscape:window-x="0"
     inkscape:window-y="30"
     inkscape:window-maximized="1">
    <inkscape:grid
       type="xygrid"
       id="grid3003"
       empspacing="2"
       visible="true"
       enabled="true"
       snapvisiblegridlinesonly="true"
       spacingx="5px"
       spacingy="5px" />
  </sodipodi:namedview>
  <metadata
     id="metadata6">
    <rdf:RDF>
      <cc:Work
         rdf:about="">
        <dc:format>image/svg+xml</dc:format>
        <dc:type
           rdf:resource="http://purl.org/dc/dcmitype/StillImage" />
        <dc:title></dc:title>
      </cc:Work>
    </rdf:RDF>
  </metadata>
  <g
     inkscape:label="Border"
     inkscape:groupmode="layer"
     id="layer1"
     transform="translate(0,-952.36218)"
     style="display:inline">
    <path
       style="fill:#000000;fill-opacity:1;fill-rule:nonzero;stroke:#000000;stroke-width:3;stroke-linecap:round;stroke-linejoin:round;stroke-miterlimit:4;stroke-opacity:1;stroke-dasharray:none"
       d="m 50,15 c -2.761424,0 -5,2.238576 -5,5 0,2.416246 1.721584,4.440019 4,4.90625 L 45,45 33,28.96875 C 34.199545,28.055407 35,26.624034 35,25 c 0,-2.761424 -2.238576,-5 -5,-5 -2.761424,0 -5,2.238576 -5,5 0,2.761424 2.238576,5 5,5 0.334557,0 0.652593,-0.03108 0.96875,-0.09375 L 35,50 24.15625,42.78125 C 24.695372,41.983245 25,41.035534 25,40 c 0,-2.761424 -2.238576,-5 -5,-5 -2.761424,0 -5,2.238576 -5,5 0,2.761424 2.238576,5 5,5 0.807157,0 1.543782,-0.22283 2.21875,-0.5625 L 30,60 l 0,10 0,10 c 0,2.761424 8.954305,5 20,5 11.045695,0 20,-2.238576 20,-5 L 70,70 70,60 77.78125,44.4375 C 78.456218,44.77717 79.192843,45 80,45 c 2.761424,0 5,-2.238576 5,-5 0,-2.761424 -2.238576,-5 -5,-5 -2.761424,0 -5,2.238576 -5,5 0,1.035534 0.304628,1.983245 0.84375,2.78125 L 65,50 69.03125,29.90625 C 69.347407,29.968916 69.665443,30 70,30 c 2.761424,0 5,-2.238576 5,-5 0,-2.761424 -2.238576,-5 -5,-5 -2.761424,0 -5,2.238576 -5,5 0,1.624034 0.800455,3.055407 2,3.96875 L 55,45 51,24.90625 C 53.278416,24.440019 55,22.416246 55,20 55,17.238576 52.761424,15 50,15 z"
       transform="translate(0,952.36218)"
       id="path2988"
       inkscape:connector-curvature="0" />
  </g>
  <g
     inkscape:groupmode="layer"
     id="layer2"
     inkscape:label="Inner lines"
     style="display:inline">
    <path
       style="fill:none;stroke:#ffffff;stroke-width:3;stroke-linecap:round;stroke-linejoin:round;stroke-miterlimit:4;stroke-opacity:1;stroke-dasharray:none"
       d="M 70,80 C 70,77.238576 61.045695,75 50,75 38.954305,75 30,77.238576 30,80"
       id="path3007"
       inkscape:connector-curvature="0"
       sodipodi:nodetypes="csc" />
    <path
       style="fill:none;stroke:#ffffff;stroke-width:3;stroke-linecap:round;stroke-linejoin:round;stroke-miterlimit:4;stroke-opacity:1;stroke-dasharray:none"
       d="M 70,70 C 70,67.238576 61.045695,65 50,65 38.954305,65 30,67.238576 30,70"
       id="path3009"
       inkscape:connector-curvature="0"
       sodipodi:nodetypes="csc" />
  </g>
</svg>
